# xmcd
#
# Track frame offsets: 
#        150
#        6033
#        15819
#        26842
#        45517
#        51964
#        58866
#        66442
#        76262
#        86020
#        100290
#        109942
#        121794
#        130489
#        146238
#        155238
#        164063
#        174513
#        183603
#        198514
#        206910
#        226337
#        242309
#        266845
#
# Disc length: 3830 seconds
#
# Revision: 0
# Processed by: cddbd v1.5.2PL0 Copyright (c) Steve Scherf et al.
# Submitted via: ExactAudioCopy v0.99pb5
#
DISCID=5c0ef418
DTITLE=Duck Baker - Mel Bay's Complete Gospel Guitar Book
DYEAR=1900
DGENRE=Gospel
TTITLE0=Abide With Me
TTITLE1=What A Friend We Have In Jesus
TTITLE2=Somewhere Around A Throne
TTITLE3=Mother Ann's Song
TTITLE4=Voyage To Canaan
TTITLE5=Wondrous Love
TTITLE6=The Lone Pilgrim
TTITLE7=Behold That Star
TTITLE8=Swing Low Sweet Chariot
TTITLE9=Deep River
TTITLE10=The Garden Hymn
TTITLE11=How Tedious And Tasteless The Hours - Holy Manna
TTITLE12=I Shall Arise And Go To Jesus
TTITLE13=The Sea Of Galielee
TTITLE14=Jerusalem, My Happy Home
TTITLE15=I Shall Not Be Moved
TTITLE16=Will The Circle By Unbroken
TTITLE17=Do Lord
TTITLE18=Just A Closer Walk With Thee
TTITLE19=There Will Be A Happy Meeting
TTITLE20=He Who Waits
TTITLE21=Pharaoh's Army
TTITLE22=The Blood Of The Lamb
TTITLE23=I'm Not Turning Backward
EXTD=
EXTT0=
EXTT1=
EXTT2=
EXTT3=
EXTT4=
EXTT5=
EXTT6=
EXTT7=
EXTT8=
EXTT9=
EXTT10=
EXTT11=
EXTT12=
EXTT13=
EXTT14=
EXTT15=
EXTT16=
EXTT17=
EXTT18=
EXTT19=
EXTT20=
EXTT21=
EXTT22=
EXTT23=
PLAYORDER=
